<svg width="200" height="100" viewBox="0 0 200 100" fill="none" xmlns="http://www.w3.org/2000/svg">
<ellipse cx="100" cy="50" rx="50" ry="50" fill="#B6D1D0"/>
<path d="M70.0894 7.85712H108.211C115.36 7.85712 121.156 13.652 121.158 20.8012V20.8012C121.158 27.9514 115.361 33.7478 108.211 33.7478H102.957V44.2994L92.405 33.7478H70.0944C66.6599 33.7491 63.3656 32.3857 60.9366 29.9576C58.5075 27.5295 57.1429 24.2357 57.1429 20.8012V20.8012C57.1442 13.652 62.9402 7.85712 70.0894 7.85712Z" fill="url(#paint0_linear_504_6363)"/>
<path fill-rule="evenodd" clip-rule="evenodd" d="M81.4286 20.4285C81.4286 16.168 84.8824 12.7142 89.1428 12.7142C93.4033 12.7142 96.8571 16.168 96.8571 20.4285C96.8571 24.689 93.4033 28.1428 89.1428 28.1428C84.8824 28.1428 81.4286 24.689 81.4286 20.4285ZM86.3388 18.0869C86.8104 16.7464 88.1801 15.9414 89.5807 16.1817C90.9813 16.4219 92.0044 17.6373 92.0023 19.0571C92.0023 20.004 91.4488 20.7419 90.592 21.3131C90.1322 21.6197 89.6822 21.8197 89.359 21.9274C88.9099 22.0771 88.4245 21.8344 88.2748 21.3853C88.1358 20.9683 88.3352 20.5199 88.7239 20.3382L88.9945 20.2315C89.0154 20.2226 89.0378 20.2129 89.0613 20.2024C89.2608 20.1137 89.46 20.0075 89.6411 19.8868C90.07 19.6008 90.288 19.3102 90.288 19.0558C90.2889 18.4707 89.8676 17.9702 89.2909 17.8713C88.7526 17.779 88.2254 18.0615 87.9996 18.5484L87.956 18.6558C87.7989 19.1024 87.3095 19.337 86.863 19.1799C86.4164 19.0229 86.1818 18.5335 86.3388 18.0869ZM89.1497 22.9999C89.6231 22.9999 90.0068 23.3837 90.0068 23.8571C90.0068 24.2967 89.676 24.659 89.2497 24.7085L89.1497 24.7142C88.6695 24.7142 88.2857 24.3305 88.2857 23.8571C88.2857 23.4175 88.6166 23.0552 89.0429 23.0057L89.1497 22.9999Z" fill="#001D2F"/>
<rect x="120" y="31.2857" width="38.8571" height="60" rx="4" fill="url(#paint1_linear_504_6363)"/>
<rect x="124.571" y="35.8571" width="29.7143" height="50.8571" rx="4" stroke="#001D2F" stroke-width="2.4" stroke-linecap="round" stroke-linejoin="round" stroke-dasharray="9.6 11.2"/>
<path fill-rule="evenodd" clip-rule="evenodd" d="M136.606 65.9478C135.356 65.9478 134.559 65.2457 134.559 64.2699C134.559 63.9487 134.654 63.5561 135.023 62.7589H133.714L134.916 60.1886H143.281C143.471 60.1886 143.602 60.046 143.602 59.8794C143.602 59.7129 143.471 59.5701 143.281 59.5701H136.511L137.105 58.2971C137.474 57.5117 138.271 57 139.14 57H141.984C143.626 57 144.84 58.1304 144.84 59.6058C144.84 61.3549 143.233 62.7589 141.377 62.7589H135.88C135.713 63.1041 135.904 63.3777 136.308 63.3777H140.687C141.413 63.3777 141.972 63.8892 141.972 64.5438C141.972 65.2934 141.246 65.9478 140.425 65.9478H136.606V65.9478Z" fill="#001D2F"/>
<defs>
<linearGradient id="paint0_linear_504_6363" x1="38.1998" y1="40.9528" x2="79.74" y2="84.1387" gradientUnits="userSpaceOnUse">
<stop stop-color="#B6D1D0"/>
<stop offset="1" stop-color="#001D2F"/>
</linearGradient>
<linearGradient id="paint1_linear_504_6363" x1="100.124" y1="59.905" x2="155.39" y2="96.5195" gradientUnits="userSpaceOnUse">
<stop stop-color="#F0EACF" stop-opacity="0.01"/>
<stop offset="0.636223" stop-color="#F0EACF"/>
<stop offset="1" stop-color="#F0EACF"/>
</linearGradient>
</defs>
</svg>
