<svg width="200" height="100" viewBox="0 0 200 100" fill="none" xmlns="http://www.w3.org/2000/svg">
<circle cx="100" cy="50" r="50" fill="#D4E300"/>
<rect x="55.7143" y="50.0032" width="103.571" height="20" rx="10" fill="url(#paint0_linear_504_5884)"/>
<rect width="103.571" height="20" rx="10" transform="matrix(-1 0 0 1 144.286 30)" fill="url(#paint1_linear_504_5884)"/>
<ellipse cx="149.286" cy="60" rx="7.14286" ry="7.14286" fill="#001D2F"/>
<rect x="82.1429" y="15" width="35.7143" height="70" rx="3.10407" fill="url(#paint2_linear_504_5884)"/>
<mask id="mask0_504_5884" style="mask-type:alpha" maskUnits="userSpaceOnUse" x="82" y="15" width="36" height="70">
<rect x="82.1429" y="15" width="35.7143" height="70" rx="3.10407" fill="white"/>
</mask>
<g mask="url(#mask0_504_5884)">
<ellipse cx="100" cy="17.1429" rx="0.714287" ry="0.714286" fill="#001D2F"/>
</g>
<path d="M107.619 51.5873C108.107 51.5873 108.51 51.955 108.565 52.4286L108.571 52.5397V55.9259C108.571 57.3329 107.473 58.4833 106.087 58.5666L105.926 58.5714H94.0741C92.6671 58.5714 91.5167 57.4731 91.4334 56.0871L91.4286 55.9259V52.5397C91.4286 52.0137 91.855 51.5873 92.381 51.5873C92.8694 51.5873 93.2719 51.955 93.3269 52.4286L93.3334 52.5397V55.9259C93.3334 56.3009 93.612 56.6109 93.9736 56.6599L94.0741 56.6667H105.926C106.301 56.6667 106.611 56.388 106.66 56.0264L106.667 55.9259V52.5397C106.667 52.0137 107.093 51.5873 107.619 51.5873Z" fill="#001D2F"/>
<path d="M95.0938 47.6334C95.4371 47.2901 95.9773 47.2637 96.3509 47.5542L96.4407 47.6334L99.9991 51.1924L103.559 47.6334C103.903 47.2901 104.443 47.2637 104.817 47.5542L104.906 47.6334C105.25 47.9768 105.276 48.517 104.985 48.8906L104.906 48.9803L100.673 53.2131C100.33 53.5564 99.7899 53.5828 99.4163 53.2923L99.3266 53.2131L95.0938 48.9803C94.7219 48.6084 94.7219 48.0054 95.0938 47.6334Z" fill="#001D2F"/>
<path d="M100 41.4286C100.488 41.4286 100.891 41.7962 100.946 42.2699L100.952 42.381V52.5397C100.952 53.0657 100.526 53.4921 100 53.4921C99.5116 53.4921 99.1091 53.1244 99.054 52.6508L99.0476 52.5397V42.381C99.0476 41.855 99.474 41.4286 100 41.4286Z" fill="#001D2F"/>
<defs>
<linearGradient id="paint0_linear_504_5884" x1="63.7457" y1="68.5085" x2="151.836" y2="68.5085" gradientUnits="userSpaceOnUse">
<stop stop-color="#D4E300" stop-opacity="0.01"/>
<stop offset="1" stop-color="#F0EACF"/>
</linearGradient>
<linearGradient id="paint1_linear_504_5884" x1="8.03138" y1="17.9084" x2="89.9401" y2="17.9084" gradientUnits="userSpaceOnUse">
<stop stop-color="#D4E300" stop-opacity="0.01"/>
<stop offset="1" stop-color="#F0EACF"/>
</linearGradient>
<linearGradient id="paint2_linear_504_5884" x1="76.6613" y1="8.4981" x2="76.6613" y2="99.986" gradientUnits="userSpaceOnUse">
<stop stop-color="#D4E300"/>
<stop offset="1" stop-color="#001D2F"/>
</linearGradient>
</defs>
</svg>
