<svg width="605" height="546" viewBox="0 0 605 546" fill="none" xmlns="http://www.w3.org/2000/svg">
<g clip-path="url(#clip0_504_6264)">
<rect width="605" height="546" fill="#DAE8E7"/>
<mask id="mask0_504_6264" style="mask-type:alpha" maskUnits="userSpaceOnUse" x="0" y="0" width="605" height="546">
<rect width="605" height="546" fill="white"/>
</mask>
<g mask="url(#mask0_504_6264)">
<rect x="87.6953" y="216.77" width="392.314" height="203.441" rx="101.72" fill="#F4A377"/>
<mask id="mask1_504_6264" style="mask-type:alpha" maskUnits="userSpaceOnUse" x="87" y="216" width="394" height="205">
<rect x="87.6953" y="216.77" width="392.314" height="203.441" rx="101.72" fill="white"/>
</mask>
<g mask="url(#mask1_504_6264)">
<path fill-rule="evenodd" clip-rule="evenodd" d="M108.984 334.147C106.57 311.265 107.447 279.394 107.447 279.394C107.447 279.394 114.958 310.387 117.373 333.269C119.787 356.151 121.426 387.758 121.426 387.758L116.393 388.285C116.393 388.285 111.399 357.029 108.984 334.147Z" fill="url(#paint0_linear_504_6264)"/>
<path fill-rule="evenodd" clip-rule="evenodd" d="M148.699 335.355C153.501 312.851 164.224 282.81 164.224 282.81C164.224 282.81 161.752 314.597 156.949 337.102C152.147 359.607 143.9 390.172 143.9 390.172L138.949 389.124C138.949 389.124 143.896 357.86 148.699 335.355Z" fill="url(#paint1_linear_504_6264)"/>
<path fill-rule="evenodd" clip-rule="evenodd" d="M140.263 338.716C145.066 316.211 155.788 286.171 155.788 286.171C155.788 286.171 153.317 317.958 148.514 340.463C143.712 362.968 135.465 393.533 135.465 393.533L130.514 392.485C130.514 392.485 135.461 361.221 140.263 338.716Z" fill="url(#paint2_linear_504_6264)"/>
<path fill-rule="evenodd" clip-rule="evenodd" d="M117.396 318.585C117.396 295.577 123.301 263.972 123.301 263.972C123.301 263.972 129.205 295.577 129.205 318.585C129.205 341.592 126.844 373.198 126.844 373.198H119.758C119.758 373.198 117.396 341.592 117.396 318.585Z" fill="url(#paint3_linear_504_6264)"/>
<path fill-rule="evenodd" clip-rule="evenodd" d="M127.522 332.663C128.328 309.669 135.337 278.288 135.337 278.288C135.337 278.288 140.13 310.08 139.324 333.073C138.518 356.067 135.05 387.571 135.05 387.571L127.969 387.325C127.969 387.325 126.716 355.657 127.522 332.663Z" fill="url(#paint4_linear_504_6264)"/>
<path fill-rule="evenodd" clip-rule="evenodd" d="M136.798 322.888C136.395 299.884 141.745 268.181 141.745 268.181C141.745 268.181 148.202 299.679 148.606 322.683C149.009 345.687 147.201 377.329 147.201 377.329L140.116 377.452C140.116 377.452 137.201 345.893 136.798 322.888Z" fill="url(#paint5_linear_504_6264)"/>
<path fill-rule="evenodd" clip-rule="evenodd" d="M115.732 343.809C113.856 326.032 115.474 301.172 115.474 301.172C115.474 301.172 122.245 325.153 124.121 342.931C125.997 360.708 126.896 385.304 126.896 385.304L121.863 385.831C121.863 385.831 117.608 361.587 115.732 343.809Z" fill="url(#paint6_linear_504_6264)"/>
<path fill-rule="evenodd" clip-rule="evenodd" d="M147.938 349.09C151.979 332.947 163.259 312.196 163.259 312.196C163.259 312.196 163.437 335.793 159.397 351.935C155.356 368.078 147.514 389.683 147.514 389.683L140.639 387.976C140.639 387.976 143.898 365.232 147.938 349.09Z" fill="url(#paint7_linear_504_6264)"/>
<path fill-rule="evenodd" clip-rule="evenodd" d="M103.185 342.073C99.454 324.588 99.279 299.521 99.279 299.521C99.279 299.521 109.355 322.492 113.086 339.976C116.817 357.461 119.963 381.899 119.963 381.899L114.022 383.157C114.022 383.157 106.916 359.558 103.185 342.073Z" fill="url(#paint8_linear_504_6264)"/>
<path fill-rule="evenodd" clip-rule="evenodd" d="M97.1514 372.865H164.633L163.365 385.499C161.691 402.177 147.654 414.874 130.892 414.874V414.874C114.131 414.874 100.094 402.177 98.4198 385.499L97.1514 372.865Z" fill="url(#paint9_linear_504_6264)"/>
<rect x="95.0426" y="364.883" width="71.6997" height="8.402" rx="4.201" fill="#001D2F"/>
</g>
<rect x="-332" y="86.4918" width="526.862" height="55.2264" rx="27.6132" fill="url(#paint10_linear_504_6264)"/>
<rect width="444.717" height="55.2264" rx="27.6132" transform="matrix(-1 0 0 1 937 381.505)" fill="url(#paint11_linear_504_6264)"/>
<path fill-rule="evenodd" clip-rule="evenodd" d="M149.91 364.249H122.28C121.038 364.249 120.03 365.546 120.03 367.146C120.03 367.288 120.038 367.429 120.054 367.569L122.19 386.222C122.841 391.909 126.629 396.122 131.091 396.122H141.098C145.56 396.122 149.348 391.909 149.999 386.222L152.135 367.569C152.316 365.986 151.467 364.513 150.238 364.28C150.129 364.259 150.019 364.249 149.91 364.249" fill="#B6D1D0"/>
<path fill-rule="evenodd" clip-rule="evenodd" d="M359.29 368.99H435.526C439.927 368.99 443.495 372.559 443.495 376.961V422.723C443.495 427.124 439.927 430.693 435.526 430.693H359.29C354.889 430.693 351.321 427.124 351.321 422.723V376.961C351.321 372.558 354.889 368.99 359.29 368.99ZM435.526 369.719H359.29C355.292 369.719 352.05 372.961 352.05 376.961V422.723C352.05 426.722 355.292 429.964 359.29 429.964H435.526C439.524 429.964 442.766 426.722 442.766 422.723V376.961C442.766 372.961 439.524 369.719 435.526 369.719Z" fill="white"/>
<path fill-rule="evenodd" clip-rule="evenodd" d="M186.54 388.523C189.037 397.779 197.489 404.591 207.533 404.591H434.794C443.995 404.591 451.861 398.875 455.037 390.8L494.19 297.453C496.8 291.269 496.39 284.566 493.629 278.988C490.158 271.778 482.828 266.778 474.319 266.666C474.222 266.664 474.126 266.664 474.029 266.663H474.026H474.026C473.861 266.661 473.697 266.661 473.533 266.663H247.184C247.019 266.661 246.855 266.661 246.691 266.663H246.563C236.908 266.663 228.724 272.957 225.886 281.667L187.358 373.559C185.275 378.496 185.115 383.762 186.54 388.523" fill="#001D2F"/>
<path d="M204.582 332.358C201.971 338.661 195.845 342.887 188.915 342.971L188.705 342.972H139.851C133.942 342.972 129.032 345.775 125.063 350.461C123.669 352.107 122.493 353.872 121.53 355.637C121.224 356.198 120.96 356.722 120.737 357.199L120.672 357.34C120.603 357.489 120.543 357.624 120.491 357.744L120.398 357.966L120.39 357.986L112.137 377.178L111.467 376.89L119.715 357.709L119.775 357.564L119.855 357.379C119.901 357.274 119.952 357.159 120.009 357.036L120.146 356.742C120.36 356.292 120.607 355.805 120.89 355.287C121.875 353.482 123.078 351.676 124.506 349.989C128.562 345.202 133.599 342.301 139.667 342.244L139.851 342.243H188.705C195.423 342.243 201.383 338.176 203.912 332.071L203.994 331.871L204.026 331.8L227.538 274.829L228.212 275.108L204.688 332.107L204.661 332.165L204.582 332.358Z" fill="white"/>
<path fill-rule="evenodd" clip-rule="evenodd" d="M125.16 368.99H201.396C205.797 368.99 209.365 372.559 209.365 376.961V422.723C209.365 427.124 205.797 430.693 201.396 430.693H125.16C120.759 430.693 117.191 427.124 117.191 422.723V376.961C117.191 372.558 120.759 368.99 125.16 368.99ZM201.396 369.719H125.16C121.162 369.719 117.921 372.961 117.921 376.961V422.723C117.921 426.722 121.162 429.964 125.16 429.964H201.396C205.394 429.964 208.636 426.722 208.636 422.723V376.961C208.636 372.961 205.394 369.719 201.396 369.719Z" fill="white"/>
<path fill-rule="evenodd" clip-rule="evenodd" d="M118.667 360.65H322.117C334.249 360.65 344.083 370.486 344.083 382.621C344.083 394.755 334.249 404.591 322.117 404.591H118.667C106.535 404.591 96.7005 394.755 96.7005 382.621C96.7005 370.486 106.535 360.65 118.667 360.65" fill="#001D2F"/>
<path d="M493.854 297.312L494.527 297.594L455.376 390.933C452.109 399.24 444.123 404.843 435.069 404.954L434.794 404.956H351.686V404.227H434.794C443.57 404.227 451.349 398.889 454.603 390.902L454.7 390.659L493.854 297.312Z" fill="black"/>
<mask id="mask2_504_6264" style="mask-type:alpha" maskUnits="userSpaceOnUse" x="232" y="65" width="271" height="253">
<path fill-rule="evenodd" clip-rule="evenodd" d="M408.813 65C392.596 65.0038 373.815 66.7886 352.217 70.7136V70.7136C266.274 86.331 314.494 130.14 279.242 181.064V181.064C243.991 231.988 236.29 235.936 232.201 263.888V263.888L252.944 313.674C252.944 313.674 292.177 327.7 306.404 304.838V304.838C330.422 266.24 343.277 266.416 364.513 266.593V266.593C383.966 266.754 410.45 266.916 458.99 237.275V237.275C476.126 226.811 502.059 181.401 502.682 139.831V139.831V136.783C502.096 98.8841 479.56 65.0029 408.851 65V65H408.813Z" fill="white"/>
</mask>
<g mask="url(#mask2_504_6264)">
<path fill-rule="evenodd" clip-rule="evenodd" d="M408.813 65C392.596 65.0038 373.815 66.7886 352.217 70.7136V70.7136C266.274 86.331 314.494 130.14 279.242 181.064V181.064C243.991 231.988 236.29 235.936 232.201 263.888V263.888L252.944 313.674C252.944 313.674 292.177 327.7 306.404 304.838V304.838C330.422 266.24 343.277 266.416 364.513 266.593V266.593C383.966 266.754 410.45 266.916 458.99 237.275V237.275C476.126 226.811 502.059 181.401 502.682 139.831V139.831V136.783C502.096 98.8841 479.56 65.0029 408.851 65V65H408.813Z" fill="url(#paint12_linear_504_6264)"/>
</g>
<path fill-rule="evenodd" clip-rule="evenodd" d="M263.129 294.909C262.294 295.289 252.973 300.502 252.233 298.796C251.494 297.091 258.273 293.373 257.78 292.586C256.285 290.201 237.724 300.173 239.305 295.408C244.396 280.063 260.716 284.712 269.781 284.319C284.637 285.21 306.21 282.581 314.576 270.267C318.731 264.152 326.678 249.075 327.127 246.527C327.577 243.979 330.722 239.363 338.959 239.363C347.197 239.363 346.914 249.358 346.914 249.358C344.27 271.318 343.476 293.013 321.002 293.807C298.528 294.601 263.129 294.909 263.129 294.909" fill="#BD805D"/>
<path fill-rule="evenodd" clip-rule="evenodd" d="M338.698 270.85C339.996 251.367 343.092 241.828 333.956 238.831C324.82 235.833 317.332 237.566 313.438 244.076C309.544 250.586 316.451 283.01 264.413 283.01C264.413 283.01 268.392 315.235 265.389 323.361C282.964 319.409 315.277 306.15 328.25 292.542C337.8 282.524 338.698 270.85 338.698 270.85" fill="#7E0F53"/>
<path d="M311.739 248.834L312.466 248.882C310.984 271.612 295.835 283.142 265.342 283.371L264.82 283.372L264.928 284.375C264.97 284.769 265.014 285.193 265.06 285.644L265.161 286.641C265.348 288.53 265.535 290.545 265.712 292.638L265.75 293.088C266.053 296.724 266.3 300.275 266.47 303.632L266.497 304.189C266.91 312.72 266.785 319.127 265.963 322.634L265.906 322.868L266.129 322.815C266.799 322.656 267.576 322.464 268.452 322.238L269.035 322.087C271.386 321.471 273.977 320.738 276.752 319.883C285.337 317.238 293.923 313.988 301.934 310.108C311.739 305.36 319.99 299.991 326.182 293.985C333.371 287.013 337.572 279.384 338.314 271.073L338.335 270.821L339.061 270.879C338.367 279.482 334.069 287.352 326.69 294.508C320.434 300.575 312.121 305.985 302.251 310.764C294.204 314.662 285.585 317.924 276.966 320.58C274.182 321.437 271.581 322.174 269.219 322.792L268.634 322.944C267.817 323.155 267.084 323.336 266.444 323.49L266.011 323.592L265.467 323.717L264.853 323.852L265.041 323.252C266.029 320.103 266.213 313.392 265.769 304.224C265.599 300.714 265.343 296.979 265.023 293.148L264.948 292.253C264.757 290.027 264.556 287.894 264.355 285.913L264.204 284.452L264.051 283.051L264.005 282.645H264.413C294.866 282.645 309.966 271.596 311.69 249.507L311.739 248.834Z" fill="#001D2F"/>
<path fill-rule="evenodd" clip-rule="evenodd" d="M136.611 421.827L154.431 431.058L192.668 391.867L174.848 382.636L136.611 421.827Z" fill="#BD805D"/>
<path fill-rule="evenodd" clip-rule="evenodd" d="M104.241 435.328H166.448V429.829L104.591 431.975L104.241 435.328Z" fill="white"/>
<path fill-rule="evenodd" clip-rule="evenodd" d="M104.591 431.975C104.591 422.316 112.822 420.598 121.831 419.311C130.84 418.023 135.649 419.078 138.562 416.734C146.369 410.457 144.118 423.496 154.103 423.496C164.089 423.496 164.161 420.928 166.314 419.474C168.467 418.021 168.594 419.224 166.792 431.975H104.591Z" fill="#7E0F53"/>
<path d="M104.59 432.422L104.592 431.611L165.967 431.799L166.314 431.799V432.611L136.632 432.525L104.59 432.422Z" fill="#001D2F"/>
<path d="M138.794 415.719L139.253 416.286C136.745 418.317 134.892 421.132 133.731 424.222C133.289 425.398 132.98 426.544 132.828 427.486C132.763 427.887 132.731 428.228 132.733 428.475C132.733 428.536 132.736 428.589 132.74 428.634L132.746 428.683L132.756 428.687C132.848 428.717 133.006 428.745 133.203 428.754L133.258 428.756C133.643 428.767 134.104 428.709 134.596 428.577C135.861 428.238 137.17 427.467 138.381 426.221C139.246 425.33 139.673 423.925 139.722 422.14C139.756 420.912 139.612 419.59 139.349 418.274C139.277 417.911 139.2 417.572 139.122 417.263L139.089 417.133C139.07 417.061 139.053 416.995 139.036 416.933L138.973 416.71L139.67 416.498L139.705 416.619L139.757 416.807C139.769 416.853 139.782 416.901 139.795 416.95C139.887 417.306 139.978 417.702 140.064 418.132C140.336 419.496 140.487 420.871 140.451 422.16C140.397 424.111 139.92 425.684 138.903 426.729C137.601 428.069 136.177 428.907 134.785 429.281C133.691 429.575 132.667 429.546 132.251 429.24C131.729 428.856 132.119 426.44 133.049 423.965C134.23 420.821 136.105 417.948 138.65 415.838L138.794 415.719Z" fill="white"/>
<path d="M125.223 411.901C125.524 411.327 127.97 411.349 130.554 411.895C133.839 412.589 136.96 414.011 139.428 416.21L139.567 416.335L139.076 416.874C136.691 414.699 133.632 413.291 130.404 412.608C129.175 412.348 127.996 412.215 127.043 412.207C126.637 412.203 126.295 412.223 126.051 412.262C125.976 412.274 125.913 412.287 125.865 412.301L125.848 412.306L125.846 412.317C125.83 412.413 125.826 412.573 125.847 412.77L125.853 412.824C125.901 413.206 126.027 413.654 126.232 414.121C126.758 415.321 127.717 416.5 129.131 417.51C130.052 418.168 131.343 418.401 132.916 418.268C134.051 418.172 135.272 417.891 136.51 417.483C137.057 417.302 137.571 417.109 138.035 416.916L138.221 416.837C138.25 416.824 138.279 416.812 138.307 416.8L138.559 416.687L138.615 416.661L138.93 417.319L138.765 417.394L138.599 417.468C138.511 417.506 138.416 417.546 138.315 417.589C137.834 417.789 137.304 417.989 136.738 418.175C135.451 418.6 134.176 418.893 132.977 418.995C131.248 419.141 129.792 418.878 128.707 418.103C127.187 417.017 126.143 415.735 125.564 414.414C125.11 413.376 124.983 412.358 125.223 411.901Z" fill="white"/>
<path fill-rule="evenodd" clip-rule="evenodd" d="M156.554 398.763L234.978 326.286C253.073 312.112 297.092 320.216 297.092 320.216C302.025 329.39 312.796 366.399 270.434 360.06C251.582 357.239 201.324 433.337 201.324 433.337L156.554 398.763Z" fill="#F0EACF"/>
<path d="M283.411 316.933V317.662C255.486 317.662 240.711 320.544 235.247 326.532C232.764 329.253 218.966 342.114 197.388 361.93L193.312 365.67C186.264 372.135 178.86 378.908 171.423 385.699L160.729 395.454L157.115 398.745L178.432 415.717L177.978 416.288L155.992 398.782L162.778 392.599L170.162 385.863C178.627 378.135 187.062 370.417 194.995 363.137L200.097 358.45C219.798 340.34 232.373 328.6 234.708 326.04C240.308 319.904 254.981 316.991 282.571 316.934L283.411 316.933Z" fill="#001D2F"/>
<path fill-rule="evenodd" clip-rule="evenodd" d="M210.523 424.398L229.511 430.89L261.536 386.471L242.547 379.979L210.523 424.398Z" fill="#BD805D"/>
<path fill-rule="evenodd" clip-rule="evenodd" d="M178.538 435.328H240.746V429.829L178.888 431.975L178.538 435.328Z" fill="white"/>
<path fill-rule="evenodd" clip-rule="evenodd" d="M178.888 431.975C178.888 422.316 187.118 420.598 196.128 419.311C205.137 418.023 209.946 419.078 212.859 416.734C220.666 410.457 218.415 423.496 228.4 423.496C238.386 423.496 235.883 420.671 238.036 419.217C240.189 417.763 242.547 426.309 241.071 432.144L178.888 431.975Z" fill="#7E0F53"/>
<path d="M178.887 432.422L178.889 431.611L240.264 431.799L240.611 431.799V432.611L210.929 432.525L178.887 432.422Z" fill="#001D2F"/>
<path d="M205.121 414.122C207.794 413.82 210.976 414.266 214.121 415.527L214.306 415.603L214.028 416.277C210.936 415.004 207.805 414.552 205.203 414.846C203.069 415.088 201.63 415.832 201.578 416.499L201.571 416.589C201.52 417.291 201.622 417.899 202.05 418.527C202.561 419.275 203.474 419.878 204.898 420.274C205.554 420.457 206.285 420.45 207.082 420.268C208.315 419.985 209.652 419.3 211.013 418.334C211.661 417.874 212.272 417.38 212.826 416.887C213.02 416.714 213.193 416.554 213.342 416.411L213.509 416.248L213.522 416.235L214.042 416.745L213.99 416.797C213.95 416.838 213.902 416.884 213.847 416.937C213.691 417.086 213.512 417.253 213.311 417.431C212.738 417.942 212.107 418.452 211.435 418.928C210.003 419.945 208.586 420.671 207.244 420.978C206.336 421.186 205.484 421.195 204.702 420.977C203.122 420.536 202.062 419.837 201.448 418.938C200.929 418.177 200.792 417.442 200.838 416.627L200.851 416.442C200.941 415.294 202.671 414.399 205.121 414.122Z" fill="white"/>
<path d="M213.264 415.599L213.717 416.171C211.096 418.248 209.171 420.76 208.155 423.176C207.322 425.157 207.268 426.777 207.824 427.148L207.93 427.219C208.06 427.303 208.145 427.353 208.272 427.418C209.538 428.064 210.987 427.858 212.738 426.096C213.618 425.21 214.059 423.799 214.124 422C214.169 420.763 214.034 419.43 213.782 418.107C213.714 417.754 213.643 417.425 213.571 417.127L213.54 417.001C213.517 416.908 213.496 416.824 213.476 416.75L213.432 416.592L214.132 416.388L214.165 416.504L214.213 416.687C214.224 416.731 214.236 416.777 214.248 416.825C214.333 417.169 214.418 417.553 214.498 417.97C214.76 419.342 214.9 420.728 214.853 422.027C214.782 423.991 214.288 425.569 213.255 426.609C211.278 428.601 209.485 428.855 207.94 428.067C207.749 427.97 207.637 427.9 207.419 427.754C206.462 427.115 206.527 425.167 207.484 422.893C208.527 420.411 210.472 417.851 213.111 415.722L213.264 415.599Z" fill="white"/>
<path fill-rule="evenodd" clip-rule="evenodd" d="M282.621 313.805H362.893C376.821 313.805 388.113 325.104 388.113 339.041C388.113 352.98 376.592 364.278 362.893 364.278H289.764C257.402 364.278 257.402 339.041 257.402 339.041C257.402 325.104 268.693 313.805 282.621 313.805" fill="#F0EACF"/>
<path fill-rule="evenodd" clip-rule="evenodd" d="M222.566 403.628L266.805 325.583C277.032 316.121 328.255 310.061 337.711 320.295L300.745 316.06C310.201 326.293 322.559 364.278 300.671 364.278C279.904 364.278 267.724 425.507 267.724 425.507L222.566 403.628Z" fill="#F0EACF"/>
<path d="M290.022 313.441V314.17C274.475 314.17 266.304 317.606 262.157 324.921L262.054 325.105C260.375 328.128 254.098 340.63 244.601 359.792L242.474 364.086C239.347 370.402 236.065 377.047 232.744 383.78L226.115 397.237L223.054 403.459L267.883 425.179L267.566 425.835L222.077 403.796L228.344 391.059C231.678 384.291 235.016 377.524 238.243 370.994L242.049 363.302L246.356 354.612C254.709 337.786 260.131 327.017 261.523 324.562C265.778 317.056 274.07 313.512 289.551 313.442L290.022 313.441Z" fill="#001D2F"/>
<path d="M362.893 313.441C377.022 313.441 388.477 324.903 388.477 339.041C388.477 353.039 377.251 364.413 363.316 364.639L362.893 364.643H302.918L302.849 364.632C302.794 364.624 302.708 364.614 302.592 364.604C301.433 364.501 299.947 364.589 298.255 365.013C295.762 365.639 293.306 366.896 291.003 368.932C288.558 371.095 286.395 374.049 284.593 377.892L284.491 378.111L284.479 378.135L284.356 378.361L284.171 378.705C284.081 378.872 283.984 379.056 283.88 379.254L283.698 379.602C283.267 380.428 282.796 381.357 282.293 382.377C280.651 385.71 279.009 389.338 277.477 393.136C275.542 397.933 273.924 402.652 272.728 407.176L272.613 407.613L271.908 407.43C273.123 402.741 274.792 397.842 276.801 392.863C278.341 389.048 279.99 385.403 281.639 382.055L281.96 381.408C282.416 380.493 282.843 379.659 283.235 378.915L283.473 378.464L283.746 377.957L283.835 377.794L283.932 377.586C285.741 373.726 287.915 370.73 290.381 368.511L290.52 368.386C292.913 366.27 295.475 364.96 298.077 364.306C299.853 363.86 301.421 363.768 302.657 363.878L302.807 363.893C302.837 363.896 302.864 363.899 302.889 363.902L302.975 363.913L362.893 363.914C376.483 363.914 387.525 353 387.745 339.453L387.748 339.041C387.748 325.443 376.841 314.393 363.304 314.173L362.893 314.17V313.441Z" fill="black"/>
<path fill-rule="evenodd" clip-rule="evenodd" d="M301.791 171.793C304.413 170.094 311.898 166.528 313.305 165.935C314.205 165.555 315.273 165.366 315.429 164.247C315.557 163.331 314.875 162.161 314.647 161.256C314.382 160.205 314.186 159.141 313.994 158.077C313.447 155.052 313.273 152.027 313.539 149.005C314.04 143.336 316.105 138.19 319.752 134.163C323.78 129.717 329.225 126.79 334.814 124.988C340.795 123.06 346.885 122.918 353.148 122.56C359.116 122.218 364.858 120.652 369.905 117.459C374.99 114.242 377.77 109.29 381.099 104.298C384.507 99.1873 389.044 94.8706 394.824 92.9836C400.219 91.2224 406.004 91.5251 411.624 92.8184C416.882 94.0285 421.684 96.1273 425.64 100.264C429.895 104.715 432.347 110.536 430.999 116.625C429.047 125.45 420.847 130.98 413.336 133.944C408.992 135.658 404.408 136.591 399.695 136.759C393.409 136.982 387.255 135.461 380.992 134.763C378.053 134.436 375.134 134.38 372.225 134.68C369.403 134.971 366.793 135.659 365.218 138.25C363.552 140.99 362.122 143.595 359.839 145.834C357.648 147.982 355.11 149.738 352.299 150.897C346.832 153.15 340.687 153.579 334.877 154.581C330.139 155.398 325.101 156.346 321.108 159.167C319.442 160.345 317.111 162.307 317.318 164.653C329.4 162.133 340.079 175.224 341.555 187.519C342.353 194.156 335.063 205.383 329.783 203.945C326.438 203.035 326.874 199.802 327.141 197.676C327.654 193.606 325.585 198.238 321.125 197.437C317.277 196.746 317.014 193.644 316.952 193.664C316.092 193.943 307.072 192.579 299.432 188.257C294.69 190.627 292.485 187.46 292.449 184.124C292.414 180.788 298.168 174.142 301.791 171.793" fill="#7E0F53"/>
<path fill-rule="evenodd" clip-rule="evenodd" d="M342.865 225.698C340.457 222.363 332.831 207.67 331.744 199.577C331.512 197.852 334.752 196.362 332.174 192.635C329.597 188.909 327.72 191.381 327.244 192.058C326.769 192.734 321.765 191.801 319.891 187.693C318.017 183.585 317.293 181.417 314.971 181.208C312.649 180.998 308.846 184.268 306.586 185.222C304.326 186.176 296.332 189.312 296.332 189.312C296.332 189.312 297.761 200.623 297.838 203.972C297.916 207.32 299.116 208.059 301.107 207.93C303.098 207.802 303.892 208.029 304.952 209.95C306.012 211.871 311.125 221.757 321.767 214.898C323.692 217.401 325.05 220.143 323.98 224.181C322.909 228.219 340.002 228.371 340.265 228.192C340.528 228.014 342.865 225.698 342.865 225.698" fill="#BD805D"/>
<path d="M304.221 191.93C306.357 191.028 308.169 191.286 309.633 192.439C310.651 193.241 311.386 194.367 311.902 195.591C312.404 196.78 312.808 198.455 312.809 199.957C312.81 202.152 311.98 203.813 310.111 204.601C308.08 205.458 306 204.725 304.036 203.014C303.558 202.597 303.123 202.151 302.739 201.705C302.631 201.58 302.533 201.462 302.447 201.352L302.335 201.209C302.305 201.171 302.282 201.14 302.266 201.117L302.254 201.102L302.847 200.677L302.915 200.768C302.928 200.785 302.942 200.804 302.958 200.824C303.053 200.946 303.164 201.082 303.291 201.229C303.654 201.65 304.064 202.072 304.515 202.464C306.292 204.012 308.111 204.654 309.828 203.93C311.389 203.271 312.081 201.887 312.08 199.957C312.079 198.563 311.697 196.98 311.231 195.874C310.758 194.753 310.085 193.723 309.182 193.011C307.925 192.021 306.394 191.804 304.505 192.601C302.997 193.237 302.208 194.394 301.981 195.955C301.836 196.95 301.93 198.027 302.177 199.077C302.235 199.323 302.296 199.547 302.358 199.745L302.415 199.921L302.437 199.983L302.608 200.442L297.147 200.797L297.099 200.07L301.607 199.776L301.596 199.739C301.563 199.623 301.53 199.502 301.499 199.374L301.467 199.244C301.201 198.112 301.099 196.948 301.26 195.85C301.522 194.051 302.462 192.672 304.221 191.93Z" fill="white"/>
<path d="M324.338 191.891L324.634 192.557L312.715 197.84L312.42 197.174L324.338 191.891Z" fill="white"/>
<path d="M330.411 193.975L330.963 194.451L327.023 199.028L326.471 198.553L330.411 193.975Z" fill="#001D2F"/>
<path d="M326.813 205.764C327.096 208.43 325.099 212.786 322.088 215.112L321.986 215.19L321.548 214.607C324.382 212.477 326.302 208.372 326.097 205.927L326.088 205.841L326.813 205.764Z" fill="#001D2F"/>
<path d="M296.857 193.289V194.018C294.545 194.018 293.671 196.248 293.995 199.189C294.224 201.27 296.031 203.006 298.025 203.411L298.11 203.428L297.978 204.145C295.651 203.717 293.54 201.719 293.271 199.269C293.125 197.948 293.228 196.588 293.646 195.523C294.189 194.137 295.228 193.32 296.767 193.29L296.857 193.289Z" fill="white"/>
<path fill-rule="evenodd" clip-rule="evenodd" d="M358.598 237.834C348.332 224.604 345.72 227.53 345.033 225.507C344.345 223.485 345.248 221.635 341.12 222.28C336.992 222.926 327.274 223.227 324.436 222.452C321.598 221.678 321.641 223.829 321.727 224.905C321.813 225.981 320.953 225.808 315.965 237.942C310.978 250.076 295.101 292.766 290.508 312.298C289.92 314.8 290.052 316.541 293.236 317.602C302.164 320.574 320.692 323.658 332.345 323.338C348.293 322.901 376.059 322.086 378.899 320.775C381.739 319.463 381.357 317.793 381.439 314.845C381.6 309.093 368.865 251.065 358.598 237.834" fill="#7E0F53"/>
<path d="M318.618 230.858L319.274 231.174L319.036 231.671C317.525 234.847 315.942 238.572 314.295 242.805L314.031 243.488C311.336 250.473 308.508 258.703 305.594 267.927L305.451 268.381C302.129 278.925 298.865 290.201 295.79 301.498L295.188 303.719C294.406 306.62 293.678 309.364 293.014 311.913L292.381 314.353C292.18 315.134 291.996 315.85 291.831 316.499L291.462 317.959L290.755 317.783L291.036 316.667C291.166 316.156 291.308 315.599 291.462 314.998L291.844 313.517C292.721 310.125 293.72 306.346 294.824 302.276C297.89 290.97 301.149 279.663 304.471 269.069L304.756 268.162C307.773 258.588 310.699 250.07 313.484 242.882L313.616 242.541C315.313 238.18 316.943 234.354 318.498 231.106L318.618 230.858Z" fill="#001D2F"/>
<path d="M352.886 230.728C359.453 235.824 365.816 250.249 371.85 271.163C374.514 280.398 376.934 290.291 379.064 300.184L379.309 301.329C379.927 304.231 380.479 306.947 380.963 309.425L381.213 310.719C381.285 311.093 381.352 311.447 381.415 311.783L381.633 312.954L381.71 313.377L380.993 313.506L380.819 312.561C380.733 312.098 380.638 311.591 380.533 311.041L380.31 309.886C379.75 307.006 379.095 303.795 378.351 300.338C376.225 290.46 373.809 280.582 371.15 271.365C365.222 250.818 358.961 236.554 352.631 231.456L352.439 231.304L352.886 230.728Z" fill="#001D2F"/>
<path fill-rule="evenodd" clip-rule="evenodd" d="M269.922 303.482C269.007 303.898 258.811 309.601 258.002 307.735C257.193 305.869 264.609 301.801 264.07 300.941C262.434 298.332 242.128 309.242 243.858 304.028C249.428 287.241 267.281 292.327 277.198 291.897C293.451 292.871 307.19 290.3 323.941 279.097C330.662 274.602 332.181 250.657 332.673 247.87C333.164 245.083 343.869 242.714 352.881 242.714C361.893 242.714 361.583 253.648 361.583 253.648C358.691 277.673 357.823 301.408 333.236 302.277C308.648 303.145 269.922 303.482 269.922 303.482" fill="#BD805D"/>
<path d="M322.799 225.414C324.404 226.24 328.897 226.753 334.27 226.83L334.737 226.836C339.518 226.881 343.77 226.552 344.611 226.074L344.636 226.06L345.022 226.678C344.059 227.279 339.663 227.62 334.585 227.563L334.081 227.556C328.725 227.47 324.287 226.961 322.522 226.091L322.465 226.062L322.799 225.414Z" fill="#001D2F"/>
<path d="M448.43 332.179C445.821 338.479 439.7 342.703 432.775 342.787L432.565 342.788H383.751C377.846 342.788 372.941 345.59 368.975 350.274C367.581 351.92 366.407 353.684 365.445 355.449C365.139 356.01 364.875 356.534 364.652 357.01L364.587 357.151C364.518 357.301 364.458 357.435 364.407 357.555L364.346 357.698L364.305 357.798L356.059 376.983L355.39 376.695L363.632 357.52C363.644 357.487 363.669 357.427 363.706 357.34C363.756 357.221 363.815 357.087 363.883 356.938L363.925 356.847C364.167 356.319 364.46 355.732 364.805 355.099C365.789 353.294 366.991 351.489 368.418 349.803C372.471 345.017 377.504 342.118 383.567 342.06L383.751 342.059H432.565C439.346 342.059 445.353 337.911 447.835 331.706L447.874 331.62L471.367 274.67L472.04 274.948L448.539 331.919L448.508 331.985L448.43 332.179Z" fill="white"/>
<path fill-rule="evenodd" clip-rule="evenodd" d="M249.248 311.748H298.767C299.672 311.748 300.405 312.483 300.405 313.388V316.285C300.405 317.191 299.672 317.925 298.767 317.925L249.248 317.925C248.343 317.925 247.61 317.191 247.61 316.285V313.388C247.61 312.482 248.343 311.748 249.248 311.748" fill="#0F866C"/>
<path fill-rule="evenodd" clip-rule="evenodd" d="M240.921 317.907H257.918L249.795 267.204C249.49 265.299 248.999 264.02 248.573 264.02H232.693C232.145 264.02 231.984 266.566 232.377 269.015L239.699 314.722C240.005 316.627 240.495 317.907 240.921 317.907" fill="#0F866C"/>
<path fill-rule="evenodd" clip-rule="evenodd" d="M245.407 290.678C244.914 286.892 243.967 283.822 243.293 283.822C242.618 283.822 242.472 286.892 242.966 290.678C243.459 294.464 244.406 297.534 245.08 297.534C245.755 297.534 245.901 294.464 245.407 290.678" fill="#001D2F"/>
<path d="M420.7 95.4863C422.046 96.3822 423.263 97.3176 424.358 98.2884C427.647 101.205 429.728 104.334 430.83 107.499C431.551 109.569 431.757 111.326 431.683 112.601L431.674 112.721L431.678 112.763C431.83 114.501 431.093 117.83 429.522 120.921L429.448 121.066C427.1 125.599 423.23 129.391 417.639 131.92L417.487 131.988L417.394 132.056C417.359 132.081 417.319 132.109 417.274 132.14L417.227 132.172C416.987 132.336 416.699 132.517 416.362 132.711C415.405 133.263 414.246 133.814 412.882 134.327C407.919 136.194 401.64 137.088 393.988 136.476C391.083 136.244 388.527 135.959 386.108 135.614C385.132 135.475 384.202 135.33 383.211 135.165L381.561 134.883C380.914 134.77 380.284 134.66 380.206 134.647L379.612 134.547C378.053 134.288 377.064 134.169 376.051 134.129C374.012 134.049 372.022 134.345 369.138 135.188C366.543 135.946 365.347 137.16 363.874 140.002L363.371 140.998L363.238 141.263C363.03 141.674 362.859 142.002 362.685 142.323C362.241 143.141 361.806 143.846 361.314 144.521C358.78 147.997 354.774 150.481 347.874 152.215L347.17 152.391C344.386 153.075 342.702 153.377 336.926 154.288L334.852 154.615C329.349 155.492 326.513 156.154 323.944 157.323C320.705 158.796 318.658 160.939 317.649 164.173L317.606 164.312L316.908 164.102C317.966 160.579 320.174 158.237 323.643 156.659L323.917 156.536C326.552 155.382 329.497 154.722 335.121 153.834L338.827 153.248C343.233 152.542 344.753 152.243 347.391 151.585L347.697 151.508C354.372 149.83 358.22 147.469 360.652 144.191L360.935 143.803C361.545 142.953 361.747 142.578 362.932 140.246L363.099 139.916C364.713 136.737 366.034 135.336 368.933 134.488C371.889 133.625 373.955 133.318 376.079 133.401C377.224 133.445 378.325 133.587 380.173 133.902L382.87 134.369L382.957 134.384C384.086 134.574 385.119 134.737 386.211 134.893L386.791 134.974C389.024 135.28 391.387 135.537 394.046 135.75C401.591 136.352 407.762 135.474 412.625 133.645C413.952 133.146 415.075 132.612 415.998 132.079C416.283 131.915 416.53 131.761 416.74 131.621L416.817 131.57C416.89 131.52 416.949 131.478 416.994 131.445L417.074 131.386L417.11 131.358L417.152 131.339C422.691 128.88 426.5 125.171 428.8 120.731C430.361 117.718 431.092 114.451 430.953 112.833L430.942 112.72L430.948 112.655C430.95 112.633 430.953 112.601 430.955 112.558L430.962 112.396C430.975 112.002 430.956 111.502 430.887 110.91C430.771 109.924 430.532 108.86 430.142 107.739C429.081 104.691 427.069 101.667 423.875 98.8339C422.876 97.9487 421.772 97.0927 420.558 96.2692L420.296 96.0932L420.7 95.4863Z" fill="black"/>
<path fill-rule="evenodd" clip-rule="evenodd" d="M360.308 277.161C361.728 255.847 365.115 245.411 355.12 242.132C345.125 238.852 336.933 240.748 332.673 247.87C328.413 254.992 338.698 292.576 279.032 291.573C279.032 291.573 279.241 333.297 275.956 342.186C360.308 342.186 360.308 277.161 360.308 277.161" fill="#7E0F53"/>
<path d="M330.848 253.078L331.575 253.125C330.709 266.409 327.303 275.36 319.982 281.56C311.942 288.37 299.046 291.775 279.624 291.934L279.394 291.935L279.382 293.495L279.363 295.287C279.347 296.685 279.326 298.187 279.298 299.773C279.197 305.675 279.037 311.577 278.805 317.118L278.776 317.808C278.275 329.389 277.526 337.78 276.471 341.716L276.438 341.838L276.868 341.848C280.485 341.918 285.294 341.72 290.89 341.052L291.452 340.984C300.619 339.848 309.684 337.678 318.152 334.23C329.07 329.784 338.319 323.476 345.376 315.042C353.565 305.256 358.579 292.863 359.906 277.595L359.945 277.132L360.672 277.191C359.394 292.82 354.305 305.508 345.935 315.51C338.796 324.042 329.448 330.417 318.427 334.905C309.894 338.38 300.768 340.564 291.542 341.707C285.574 342.446 280.461 342.656 276.672 342.573L276.313 342.564L275.938 342.55L275.466 342.528L275.608 342.077C276.725 338.516 277.524 329.886 278.047 317.777C278.285 312.274 278.451 306.393 278.557 300.497L278.57 299.76C278.607 297.611 278.633 295.614 278.65 293.823L278.668 291.572L278.669 291.21L279.03 291.209C298.627 291.115 311.544 287.751 319.511 281.004C326.584 275.013 329.927 266.358 330.822 253.47L330.848 253.078Z" fill="#001D2F"/>
<path d="M147.056 193H214.944C227.676 193 237.998 203.495 238 216.443V216.443C238 229.392 227.678 239.89 214.944 239.89H205.587V259L186.796 239.89H147.065C140.948 239.893 135.082 237.423 130.756 233.026C126.43 228.628 124 222.663 124 216.443V216.443C124.002 203.495 134.324 193 147.056 193Z" fill="url(#paint13_linear_504_6264)"/>
<ellipse cx="181.207" cy="216.311" rx="3.3564" ry="3.36818" fill="#F0EACF"/>
<ellipse cx="199.108" cy="216.311" rx="3.3564" ry="3.36818" fill="#F0EACF"/>
<ellipse cx="163.307" cy="216.311" rx="3.3564" ry="3.36818" fill="#F0EACF"/>
</g>
</g>
<defs>
<linearGradient id="paint0_linear_504_6264" x1="101.501" y1="144.693" x2="76.0298" y2="148.658" gradientUnits="userSpaceOnUse">
<stop stop-color="#F4A377"/>
<stop offset="1" stop-color="#001D2F"/>
</linearGradient>
<linearGradient id="paint1_linear_504_6264" x1="200.131" y1="152.833" x2="174.683" y2="148.734" gradientUnits="userSpaceOnUse">
<stop stop-color="#F4A377"/>
<stop offset="1" stop-color="#001D2F"/>
</linearGradient>
<linearGradient id="paint2_linear_504_6264" x1="191.696" y1="156.194" x2="166.248" y2="152.094" gradientUnits="userSpaceOnUse">
<stop stop-color="#F4A377"/>
<stop offset="1" stop-color="#001D2F"/>
</linearGradient>
<linearGradient id="paint3_linear_504_6264" x1="134.703" y1="129.393" x2="98.7412" y2="131.899" gradientUnits="userSpaceOnUse">
<stop stop-color="#F4A377"/>
<stop offset="1" stop-color="#001D2F"/>
</linearGradient>
<linearGradient id="paint4_linear_504_6264" x1="151.421" y1="144.189" x2="115.394" y2="145.438" gradientUnits="userSpaceOnUse">
<stop stop-color="#F4A377"/>
<stop offset="1" stop-color="#001D2F"/>
</linearGradient>
<linearGradient id="paint5_linear_504_6264" x1="150.801" y1="133.424" x2="114.888" y2="136.557" gradientUnits="userSpaceOnUse">
<stop stop-color="#F4A377"/>
<stop offset="1" stop-color="#001D2F"/>
</linearGradient>
<linearGradient id="paint6_linear_504_6264" x1="112.661" y1="196.33" x2="87.2692" y2="200.654" gradientUnits="userSpaceOnUse">
<stop stop-color="#F4A377"/>
<stop offset="1" stop-color="#001D2F"/>
</linearGradient>
<linearGradient id="paint7_linear_504_6264" x1="197.832" y1="220.498" x2="162.266" y2="215.183" gradientUnits="userSpaceOnUse">
<stop stop-color="#F4A377"/>
<stop offset="1" stop-color="#001D2F"/>
</linearGradient>
<linearGradient id="paint8_linear_504_6264" x1="87.1278" y1="195.19" x2="57.5052" y2="203.904" gradientUnits="userSpaceOnUse">
<stop stop-color="#F4A377"/>
<stop offset="1" stop-color="#001D2F"/>
</linearGradient>
<linearGradient id="paint9_linear_504_6264" x1="113.147" y1="425.525" x2="165.459" y2="385.688" gradientUnits="userSpaceOnUse">
<stop stop-color="#F4A377"/>
<stop offset="1" stop-color="#001D2F"/>
</linearGradient>
<linearGradient id="paint10_linear_504_6264" x1="-148.452" y1="132.098" x2="194.862" y2="132.098" gradientUnits="userSpaceOnUse">
<stop stop-color="#F0EACF"/>
<stop offset="1" stop-color="#F4A377"/>
</linearGradient>
<linearGradient id="paint11_linear_504_6264" x1="154.93" y1="45.6065" x2="444.717" y2="45.6065" gradientUnits="userSpaceOnUse">
<stop stop-color="#F0EACF"/>
<stop offset="1" stop-color="#F4A377"/>
</linearGradient>
<linearGradient id="paint12_linear_504_6264" x1="220.386" y1="15.9613" x2="103.932" y2="263.521" gradientUnits="userSpaceOnUse">
<stop stop-color="#F4A377" stop-opacity="0.01"/>
<stop offset="1" stop-color="#F0EACF"/>
</linearGradient>
<linearGradient id="paint13_linear_504_6264" x1="55.4118" y1="221.683" x2="95.5751" y2="338.609" gradientUnits="userSpaceOnUse">
<stop stop-color="#0F866C"/>
<stop offset="1" stop-color="#001D2F"/>
</linearGradient>
<clipPath id="clip0_504_6264">
<rect width="605" height="546" fill="white"/>
</clipPath>
</defs>
</svg>
